<?xml version="1.0" encoding="utf-8"?>
<!-- Generator: Adobe Illustrator 15.0.0, SVG Export Plug-In . SVG Version: 6.00 Build 0)  -->
<!DOCTYPE svg PUBLIC "-//W3C//DTD SVG 1.1//EN" "http://www.w3.org/Graphics/SVG/1.1/DTD/svg11.dtd">
<svg version="1.1" id="Layer_1" xmlns="http://www.w3.org/2000/svg" xmlns:xlink="http://www.w3.org/1999/xlink" x="0px" y="0px"
	 width="400.414px" height="338.277px" viewBox="0 0 400.414 338.277" enable-background="new 0 0 400.414 338.277"
	 xml:space="preserve">
<path fill="none" stroke="#E6E7E8" stroke-miterlimit="10" d="M0,160.25c2,1.75,2.5,3.75,5.25,4.5s10,3.25,10,3.25H23
	c0,0,5,2.25,8,4.25s17.75,6.5,17.75,6.5l-0.5,8.5c0,0,3,7.5,1,8.75s-1,5.75-1,7.25s-0.5,3,1,4.25s14.5,11.168,14.5,13.5
	c0,2.334,0.667,0.334,0,6.668c-0.667,6.332,1.926,7.334,3.296,9s1.371,1.666,3.037,3c1.666,1.332,4,4.332,3.333,5.332
	s1.566,3.668,0.117,5.668c-1.449,2-6.784,9.334-6.784,10.666c0,1.334-0.333,1.668-1,4c-0.667,2.334-1.333,3-1.333,4.666
	c0,1.668,3.667,3,3.667,3s9.667,0,11,0s7.333,1.668,10.333,2.668s-0.333,0.666,2.333,1.666s3,4.668,7.333,5c4.333,0.334,7,1.668,7,3
	c0,1.334,0,6.334,0,6.334s-2.333,4.998,0,6.332s-0.668,4,3.332,7s3,3.666,3,3.666s14.667,3.002,14.667,4.334c0,1.334,7.667-1,12,0
	s10-0.484,12,0.424c2,0.91,8,0,8,0s2.333-3.09,5.333-4.424s9-3,10.333-1s3.334,5.656,5.334,5.828s1.666-0.172,7,0
	c5.332,0.172,8.998,2.506,8.998,4.506s1.667,3.998,2.667,5.332s9.333,1.668,13,1.334s3.999-4.332,3.667-6
	c-0.334-1.666,0.198-1.668,0.101-4.334c-0.1-2.666,3.233-4.998,5.565-5.666c2.334-0.666,8.334-5,8.334-5s-3.668-5,0-6.334
	c3.666-1.332,12-5,12-5S263.08,294,268.08,295s15.666,1.668,20.334,3c4.666,1.334,9.666,15,11.333,16.666
	c1.667,1.668,4.999,4.666,8.665,6s15.666,1.668,19,0.334s8.667-5.334,11-7.666c2.333-2.334,8.999-5,11.333-4s8,1.334,17,2.666
	c9,1.334,21.333,2.334,23,2.334s6.667,1,6.667,1l2.667-0.668"/>
<path fill="none" stroke="#E6E7E8" stroke-miterlimit="10" d="M70.693,254.651c0,0,2.724,0.652,10.057,0
	c7.333-0.651,4,0.347,8,1.681s6.333,1.334,9,2.668c2.667,1.332,3,1.334,9.667,1.666c6.667,0.334,5.667-2,10.667,0
	s1.333,4,1.333,6.666c0,2.668-2.075,5.334,1.296,5.668c3.371,0.332,4.704,3.332,4.704,3.332s-1,1.002,0,2.334
	c1,1.334,3-0.332,6.333,0c3.333,0.334,11.667-2.334,11.667-2.334s6-2.998,8.667-3.666c2.667-0.666,3.333,1,7.333-1.334
	c4-2.332,4-2.332,4-2.332v8.666h4.667v1.525c0,0,2-0.809,4.667,0s1-1.525,2.667,0.809c1.667,2.332,1.333,3.666,2,4.666s6,0,6,0
	s5.333,1.666,5.333,2.666s8.334-1.666,9.334,0c1,1.668,8.666,1.668,8.666,1.668l8,5.666h4h7h11.039"/>
<polyline fill="none" stroke="#E6E7E8" stroke-miterlimit="10" points="218.75,294.666 218.369,48 198.75,45 164.25,72.5 
	163.417,269 "/>
<line fill="none" stroke="#E6E7E8" stroke-miterlimit="10" x1="198.084" y1="287.332" x2="198.084" y2="45"/>
<path fill="none" stroke="#E6E7E8" stroke-miterlimit="10" d="M222.416,189.998c1.334,0,7.969,4.668,8.65,3.668
	c0.683-1,13.017,0.141,13.017,0.141s12,1.525,15,1.859c3,0.332,17,3,17,3s10.333-1.668,12.333-2c2-0.334,6.334,0.332,6.334,0.332
	v1.668l4.666-5.334c0,0-1.333-0.668,2.667-1.334s7.333-2,7.333-2s4-1.998,5.334-2.666c1.333-0.666,9.999-2,16.666-1.834
	c6.667,0.168,17.334-1.166,18.667,0c1.333,1.168,4.333-1.166,7,0c2.667,1.168,11,1.5,11,1.5l2.333-4l-3.666-1.332l-3.334-2.668
	c0,0-1.999-5.666-1.666-6.666s1.667-1.332,3-3c1.333-1.667,3.332-5,5.666-6s6.668-1.668,10.334-1.334s7.667-1.174,9-0.087
	s10.666,2.754,10.666,2.754"/>
<path fill="none" stroke="#E6E7E8" stroke-miterlimit="10" d="M36.484,175.43l8.599-1.765c0,0,3.667-0.334,6,0
	c2.333,0.332,4,1.283,7,0.809s10.888-2.143,12.611-2.143c1.723,0,4.389,1.549,4.389,1.549h7.333h2.001c0,0,5.333,2.313,6.667,1.55
	c1.334-0.765-0.333-1.513,1-1.472c1.333,0.039,6.333,0,6.333,0l6,1.627c0,0,3.667-0.414,5.667,0c2,0.412,6,2.08,6,2.08
	s8.667,0.666,9,1.666s6.333,2.666,8.667,2.666s10.491,4.668,10.491,4.668v7l9.176-1.668c0,0,4.667-1.334,5.667-2s4,0,4,0"/>
<path fill="none" stroke="#E6E7E8" stroke-miterlimit="10" d="M241.25,182.5c0,0,0.688-2.75-1-6s-3.75-3.5-3.75-3.5l-2.329,2.5
	c0,0-1.671,1.25-1.671,2.5s1.25,1.676,2.75,2.088S241.25,182.5,241.25,182.5z"/>
<path fill="none" stroke="#E6E7E8" stroke-miterlimit="10" d="M218.369,190.507V189.5v-21c0,0,0.881-1.25,1.631-1.75
	s-0.062-1,0.938-3.75s0.312-5.75,0.562-6.75s0.863-2.639,1.75-3c1.637-0.667,4.5,0.049,5.75-1.101s3.5-4.399,5.25-5.149
	s3.75-1,5.5,0s2,5.149,2,5.149l-0.25,3.101l-1.375,2.75c0,0,0.312,2.625,1.938,3.511c1.271,0.693,0.688,8.989,0.688,8.989
	s2,1.75,2.25,2.75s2.75,5.176,3,6.838s1.75,4.662,1.75,4.662s0.5,4,0,4.25s-2.5,0.5-4.25,0.5s-2.551-1.097-2.801-1.847l0.914,6.11
	c0,0-10.988-0.889-13.83-0.186c-1.957,0.483-3.886-1.494-4.386-2.244s-2.983-1.336-2.983-1.336L218.369,190.507z"/>
<path fill="none" stroke="#E6E7E8" stroke-miterlimit="10" d="M263.5,195.75c0.5-1.25,2-5.5,3-6.5s-1.25,1.25,1-1
	s1.75-4.5,1.75-5.75s-0.904-2.75,0.047-4.25c0.953-1.5,2.453-3.5,2.453-3.5s1.938-0.375,1.938-1.875s-0.438-3.648-0.438-3.648
	l2-5.226c0,0,1.75-2.479,4.75-2.489c3-0.01,4.5,2.489,4.5,3.739s0.625,4.351,0.875,5.125c0.25,0.774,3.875,0.875,4.375,1.875
	s0.5,6.926,0,7.838s1.5,2.662,1.5,2.662s0.5,0.25,1.25,1.75s1.25,3.5,1.25,3.5l2.5,4.111v4.838"/>
</svg>
