<?xml version="1.0" encoding="utf-8"?>
<!-- Generator: Adobe Illustrator 15.0.2, SVG Export Plug-In . SVG Version: 6.00 Build 0)  -->
<!DOCTYPE svg PUBLIC "-//W3C//DTD SVG 1.1//EN" "http://www.w3.org/Graphics/SVG/1.1/DTD/svg11.dtd">
<svg version="1.1" id="Layer_1" xmlns="http://www.w3.org/2000/svg" xmlns:xlink="http://www.w3.org/1999/xlink" x="0px" y="0px"
	 width="623px" height="78px" viewBox="-2 -0.75 623 78" enable-background="new -2 -0.75 623 78" xml:space="preserve">
<path id="r_3_" fill="#A5AAB7" d="M92.236,56.931c0.215,0.788,1.002,1.432,1.862,1.432h6.444l-3.151,12.316H87.224
	c-2.506,0-4.941-2.004-5.514-4.368l-3.079-12.746l-8.593,4.297l-3.294,12.816H53.999L67.46,17.834h36.304
	c3.366,0,5.442,2.649,4.583,5.872l-3.366,12.889c-0.716,2.865-2.721,5.228-5.084,6.373l-9.81,4.869L92.236,56.931z M73.978,42.466
	l17.399-8.736c1.433-0.715,1.934-1.575,2.148-2.291c0.286-0.93-0.501-1.36-1.647-1.36h-14.75L73.978,42.466z"/>
<path id="a_1_" fill="#A5AAB7" d="M126.607,30.079c-1.432,0-2.292,1.002-2.578,2.148l-1.289,5.084h-12.889l3.938-15.109
	c0.645-2.363,3.151-4.368,5.729-4.368h32.652c3.365,0,5.371,2.649,4.583,5.872l-10.956,42.605c-0.573,2.364-3.151,4.368-5.729,4.368
	H107.13c-3.366,0-5.442-2.65-4.583-5.8l3.151-11.885c0.644-2.363,2.721-5.156,5.227-6.229l28.929-12.746
	c1.647-0.716,2.578-1.432,2.578-2.579c0-0.859-0.645-1.36-1.575-1.36L126.607,30.079L126.607,30.079z M135.271,47.551l-15.896,7.017
	c-1.647,0.715-2.578,1.36-2.578,2.506c0,0.859,0.716,1.289,1.647,1.289h14.464c1.146,0,2.291-0.93,2.578-2.004l1.934-7.232
	C137.849,47.407,136.775,46.906,135.271,47.551z"/>
<path id="n_1_" fill="#A5AAB7" d="M196.064,17.834h12.889l-13.534,52.845H179.81l-7.59-31.578l-8.092,31.578h-12.817l13.605-52.845
	h14.607l8.02,33.725L196.064,17.834z"/>
<path id="g_1_" fill="#A5AAB7" d="M255.711,30.079h-28.284c-1.146,0-2.292,1.074-2.578,2.148L218.548,56.5
	c-0.287,1.074,0.429,1.862,1.576,1.862h13.533c1.217,0,2.363-0.93,2.65-2.004l1.503-5.943h-10.025l3.151-12.317h22.843
	l-7.232,28.212c-0.573,2.364-3.15,4.368-5.657,4.368h-32.724c-3.365,0-5.298-2.578-4.51-5.8l10.955-42.675
	c0.573-2.363,3.079-4.368,5.585-4.368h38.667L255.711,30.079z"/>
<path id="e_1_" fill="#A5AAB7" d="M282.708,58.362c1.503,0,2.363-0.859,2.649-2.004l1.36-5.227h12.746l-3.938,15.179
	c-0.644,2.363-3.079,4.368-5.585,4.368h-32.652c-3.366,0-5.441-2.434-4.583-5.8l10.956-42.676c0.572-2.363,3.078-4.368,5.584-4.368
	h32.938c3.366,0,5.442,2.506,4.583,5.872l-3.007,11.815c-0.645,2.506-2.793,5.228-5.227,6.301l-29,12.746
	c-1.647,0.715-2.578,1.432-2.578,2.506c0,0.86,0.715,1.289,1.646,1.289L282.708,58.362L282.708,58.362z M274.115,40.962
	l15.897-6.946c1.576-0.716,2.506-1.432,2.506-2.578c0-0.86-0.572-1.36-1.646-1.36h-14.393c-1.146,0-2.363,1.003-2.648,2.148
	l-1.791,7.231C271.609,41.105,272.468,41.679,274.115,40.962z"/>
<path id="l_1_" fill="#A5AAB7" d="M336.556,70.679h-29.859c-3.366,0-5.299-2.434-4.439-5.8l11.957-47.043h12.889L317.08,56.501
	c-0.287,1.074,0.501,1.862,1.574,1.862h21.052L336.556,70.679z"/>
<path id="w_1_" fill="#A5AAB7" d="M367.704,70.679h-20.909c-3.365,0-5.371-2.434-4.512-5.8l11.959-47.043h12.889l-9.955,38.666
	c-0.287,1.074,0.358,1.862,1.433,1.862h9.452c1.217,0,2.364-0.93,2.65-2.004l9.954-38.524h12.745l-9.954,38.666
	c-0.286,1.074,0.429,1.862,1.576,1.862h9.379c1.146,0,2.435-0.859,2.722-2.004l9.811-38.524h12.746L407.302,66.31
	c-0.571,2.363-3.15,4.368-5.657,4.368h-21.839c-2.649,0-4.583-0.859-5.728-2.219C372.502,69.82,370.354,70.679,367.704,70.679z"/>
<path id="o_1_" fill="#A5AAB7" d="M456.925,66.31c-0.572,2.363-3.078,4.368-5.584,4.368h-32.795c-3.366,0-5.299-2.434-4.44-5.8
	l10.885-42.676c0.572-2.363,3.151-4.368,5.656-4.368h32.652c3.367,0,5.371,2.649,4.583,5.872L456.925,66.31z M428.927,56.5
	c-0.287,1.074,0.501,1.862,1.575,1.862h13.605c1.146,0,2.291-0.93,2.578-2.004l6.301-24.346c0.287-1.074-0.357-1.934-1.432-1.934
	h-13.677c-1.217,0-2.363,1.074-2.649,2.148L428.927,56.5z"/>
<path id="r_2_" fill="#A5AAB7" d="M500.749,56.931c0.215,0.788,1.003,1.432,1.862,1.432h6.444l-3.15,12.316h-10.167
	c-2.506,0-4.941-2.004-5.514-4.368l-3.078-12.746l-8.592,4.297l-3.293,12.816h-12.747l13.462-52.844h36.303
	c3.365,0,5.442,2.649,4.583,5.872l-3.366,12.889c-0.716,2.865-2.723,5.228-5.085,6.373l-9.809,4.869L500.749,56.931z
	 M482.488,42.466l17.401-8.736c1.432-0.715,1.934-1.575,2.148-2.291c0.285-0.93-0.502-1.36-1.647-1.36h-14.751L482.488,42.466z"/>
<path id="k_1_" fill="#A5AAB7" d="M548.509,31.726c0.788-0.358,1.503-1.36,1.719-2.22l3.007-11.671h12.747l-4.297,16.827
	c-0.715,2.936-2.721,5.299-5.227,6.516l-9.452,4.726l2.649,11.028c0.214,0.788,1.002,1.432,1.79,1.432h5.299l-3.151,12.317h-9.023
	c-2.507,0-4.942-2.005-5.514-4.368l-3.509-14.68l-8.879,4.44l-3.722,14.607h-12.817l13.605-52.845h12.746l-5.872,22.771
	L548.509,31.726z"/>
<path id="s_1_" fill="#A5AAB7" d="M557.317,70.679l3.221-12.316h28.428c1.145,0,2.004-0.788,2.219-1.503
	c0.286-0.93,0.072-1.646-1.074-2.435L569.49,40.676c-2.077-1.359-3.222-4.51-2.65-6.873l2.936-11.6
	c0.572-2.363,3.079-4.368,5.584-4.368h32.795c3.366,0,5.441,2.721,4.582,5.872L609.016,38.1h-12.889l1.646-6.086
	c0.287-1.074-0.358-1.934-1.503-1.934h-13.677c-1.146,0-2.004,0.43-2.291,1.576s0.144,2.005,1.289,2.721l20.48,13.533
	c2.078,1.36,3.222,4.511,2.649,6.874l-2.935,11.529c-0.573,2.363-3.151,4.367-5.729,4.367L557.317,70.679L557.317,70.679z"/>
<path id="smallWing_1_" fill="#777B84" d="M31.674-0.997c-1.292,0.089,2.26,13.047,5.84,19.707
	c-1.472,6.837-1.163,7.127,2.691,11.064c-0.767,6.324-0.265,6.295,4.2,7.861c-3.795,17.622,17.768,9.024,13.333-3.994
	C53.765,20.621,35.952-1.292,31.674-0.997z"/>
<path id="bigWing_1_" fill="#A5AAB7" d="M58.332,37.778C50.978,23.138,8.891,3.772-1.48,5.977
	C-4.605,6.641,7.016,20.449,16.121,26.99c-1.97,8.726-1.283,8.959,7.139,12.285c-0.749,7.879,0.227,7.671,9.039,8.023
	C26.889,69.847,65.685,52.42,58.332,37.778z"/>
</svg>
